<mxfile host="app.diagrams.net" modified="2021-08-13T06:32:24.566Z" agent="5.0 (Macintosh; Intel Mac OS X 10_14_6) AppleWebKit/537.36 (KHTML, like Gecko) Chrome/92.0.4515.107 Safari/537.36" etag="n7Z2bbPPOgoMdpuBtHqz" version="14.9.6" type="github">
  <diagram name="Page-1" id="b520641d-4fe3-3701-9064-5fc419738815">
    <mxGraphModel dx="1186" dy="693" grid="1" gridSize="10" guides="1" tooltips="1" connect="1" arrows="1" fold="1" page="1" pageScale="1" pageWidth="1100" pageHeight="850" background="none" math="0" shadow="0">
      <root>
        <mxCell id="0" />
        <mxCell id="1" parent="0" />
        <mxCell id="Y_ho3osbUvxOZYbfvD7G-1" value="算法Docker&lt;br&gt;基础镜像" style="whiteSpace=wrap;html=1;aspect=fixed;" vertex="1" parent="1">
          <mxGeometry x="330" y="170" width="80" height="80" as="geometry" />
        </mxCell>
        <mxCell id="Y_ho3osbUvxOZYbfvD7G-2" value="ROS_MFR_&lt;br&gt;ADAPTOR&lt;br&gt;Docker&lt;br&gt;基础镜像" style="whiteSpace=wrap;html=1;aspect=fixed;" vertex="1" parent="1">
          <mxGeometry x="330" y="300" width="80" height="80" as="geometry" />
        </mxCell>
      </root>
    </mxGraphModel>
  </diagram>
</mxfile>
